<svg version="1.1" id="Layer_1" xmlns="http://www.w3.org/2000/svg" xmlns:xlink="http://www.w3.org/1999/xlink" x="0px" y="0px"
	 width="100%" viewBox="0 0 512 512" enable-background="new 0 0 512 512" xml:space="preserve">
<path fill="#FFFDFD" opacity="1.000000" stroke="none" 
	d="
M292.000000,513.000000 
	C194.690292,513.000000 97.880577,513.000000 1.035435,513.000000 
	C1.035435,342.398590 1.035435,171.797195 1.035435,1.097890 
	C171.559723,1.097890 342.119537,1.097890 512.839661,1.097890 
	C512.839661,171.666550 512.839661,342.333252 512.839661,513.000000 
	C439.463837,513.000000 365.981903,513.000000 292.000000,513.000000 
M407.964233,199.969131 
	C407.964233,199.969131 408.031189,200.027817 408.045441,200.728424 
	C394.029755,221.749985 375.671967,237.612274 352.363953,247.593765 
	C347.248413,249.784470 345.155334,253.512344 346.698425,257.671204 
	C348.276306,261.923859 352.903076,263.589996 358.123505,260.956573 
	C366.419342,256.771820 374.875336,252.678391 382.506195,247.442505 
	C408.894989,229.335907 426.339996,204.200150 437.959351,174.723907 
	C440.840149,167.415817 443.702271,160.100327 446.572968,152.788239 
	C444.212250,153.240677 442.749603,154.266251 441.324585,155.341705 
	C428.180847,165.261566 415.377716,175.674850 401.831818,185.010574 
	C377.083099,202.067200 348.764648,209.900253 319.609802,215.337753 
	C296.989105,219.556625 275.394165,226.676895 256.671967,240.516922 
	C245.713501,248.617798 235.402634,257.588867 224.650284,265.975983 
	C212.163101,275.716309 199.318893,284.869263 184.012024,289.906311 
	C164.610992,296.290619 141.442856,288.079468 132.327560,271.159058 
	C125.084526,257.714050 124.579483,243.448471 128.259766,228.936157 
	C134.634048,203.800629 149.764465,184.504852 169.789719,168.920425 
	C202.781265,143.245117 240.174332,127.963814 281.937317,124.840775 
	C300.482483,123.453972 319.195465,124.270546 337.832703,124.179932 
	C343.525177,124.152245 346.636932,121.817703 346.717407,117.081932 
	C346.796173,112.445679 344.094940,109.920746 338.565125,109.831390 
	C325.426880,109.619049 312.285645,109.339638 299.147583,109.416878 
	C257.608063,109.661064 218.975143,120.519112 183.333694,141.822144 
	C156.395538,157.923172 133.690948,178.211227 120.402710,207.410645 
	C112.413437,224.966171 109.294243,243.178696 113.460068,262.353424 
	C121.063507,297.351074 159.425064,315.367920 192.110046,302.575745 
	C212.637924,294.541534 230.005783,281.691467 246.019272,267.111145 
	C269.861633,245.402603 297.882874,233.473099 329.275879,228.057205 
	C355.359894,223.557236 380.226776,215.368576 403.025970,201.547928 
	C404.454315,200.682098 406.263000,200.443787 407.964233,199.969131 
M472.849854,111.384689 
	C480.299316,97.534828 484.721069,82.559372 489.382416,67.536461 
	C486.188873,69.438965 483.531372,71.659119 480.935516,73.949158 
	C469.683990,83.875145 458.320099,93.648033 444.562347,100.074066 
	C423.873291,109.737595 401.980438,112.638458 379.389954,111.627853 
	C375.397308,111.449242 371.384003,111.222176 367.402832,111.436943 
	C363.157104,111.665985 360.696716,114.061913 360.637634,118.515999 
	C360.579102,122.927864 362.811005,125.626503 367.139374,125.791977 
	C390.994904,126.703949 414.815704,126.992592 437.729431,118.619537 
	C442.954773,116.710121 448.112244,114.614891 453.705414,112.448517 
	C453.534302,113.511917 453.601257,114.049881 453.369293,114.373718 
	C452.304443,115.860268 451.232910,117.354698 450.025879,118.724823 
	C436.372833,134.222992 418.409454,141.067780 398.542938,141.550156 
	C374.959717,142.122772 351.328644,140.831909 327.720673,140.253128 
	C300.006866,139.573700 272.404663,140.087646 245.557892,148.170425 
	C213.488068,157.825714 185.343765,173.956894 163.427200,199.682770 
	C152.924942,212.010437 145.359192,225.754730 144.488968,242.702637 
	C143.214798,267.517303 168.637161,282.490967 189.322540,270.633606 
	C199.041656,265.062378 207.937912,257.801636 216.452286,250.434235 
	C235.708221,233.772308 255.921249,218.887100 280.105743,209.958908 
	C284.260803,208.424988 288.216339,205.227951 291.185303,201.850830 
	C296.424683,195.891098 297.386749,188.706207 293.956360,181.332687 
	C290.587189,174.090698 284.542480,170.542175 276.778809,170.661270 
	C271.850098,170.736893 266.777588,171.457047 262.047211,172.838776 
	C228.676987,182.586288 201.211624,201.534409 178.288208,227.375473 
	C174.155167,232.034592 173.968689,236.639053 177.544952,239.599365 
	C180.918777,242.392090 185.295731,241.439117 189.239578,237.027893 
	C207.271255,216.859375 228.453903,201.014084 253.688980,191.042740 
	C260.736115,188.258148 268.292267,186.662140 275.729523,185.049622 
	C277.195709,184.731720 280.320831,186.558075 280.657776,187.902557 
	C281.100708,189.670074 279.897888,192.183731 278.719299,193.909897 
	C277.894867,195.117432 275.962067,195.622803 274.462219,196.305374 
	C267.347778,199.543137 260.053375,202.426117 253.114166,206.000580 
	C233.850327,215.923584 217.814377,230.252579 201.407501,244.121292 
	C194.863022,249.653320 187.775772,254.916840 180.138367,258.688049 
	C170.527756,263.433624 160.549881,257.140778 159.185791,246.554672 
	C157.724792,235.216278 162.545212,225.684143 168.679474,216.844711 
	C183.343918,195.713364 203.751999,181.601471 226.642288,170.790924 
	C251.017380,159.279175 276.976105,154.624924 303.712433,154.778809 
	C333.328339,154.949249 362.943359,156.614441 392.551575,156.436249 
	C426.966095,156.229126 455.137024,143.534729 472.849854,111.384689 
M216.359909,325.826111 
	C232.695694,317.641876 246.852478,306.301575 261.307648,295.312836 
	C271.987152,287.194336 283.117920,279.566071 294.616882,272.668304 
	C301.365173,268.620300 308.816681,269.811127 315.094727,275.110138 
	C322.175659,281.086823 323.844360,289.871613 320.049133,300.227173 
	C315.400116,312.912415 307.055878,323.056580 297.425781,332.096008 
	C275.106049,353.046814 248.793686,367.302795 219.965240,377.150513 
	C214.890167,378.884155 212.634659,382.687836 214.072113,387.089264 
	C215.383896,391.105835 219.456345,392.798767 224.460968,391.068573 
	C229.950531,389.170715 235.419205,387.168701 240.759354,384.889648 
	C270.952698,372.003967 298.528320,355.300934 319.658051,329.536926 
	C328.648163,318.575043 335.439148,306.484985 336.458405,291.892212 
	C337.621490,275.240875 326.279694,260.301697 310.151184,256.673370 
	C298.465149,254.044418 288.157196,257.725250 279.031036,264.043854 
	C265.097107,273.691254 251.881607,284.374756 238.335938,294.584961 
	C218.832642,309.285828 198.163635,321.324280 173.057175,323.390350 
	C169.052231,323.719940 166.105515,325.769836 165.839142,330.251495 
	C165.515274,335.700653 169.436890,338.451355 176.166153,337.744843 
	C190.054352,336.286743 203.172791,332.268646 216.359909,325.826111 
M66.779373,195.275833 
	C55.028419,206.330978 45.371063,218.965347 38.321041,233.499298 
	C35.702305,238.897949 36.838615,243.266739 40.893345,245.202499 
	C45.045338,247.184692 48.692402,245.344376 51.442059,239.866623 
	C57.545967,227.706665 65.369308,216.782608 75.327728,207.503250 
	C79.818436,203.318787 84.747643,199.604874 89.477898,195.677460 
	C89.939034,196.025421 90.400177,196.373398 90.861313,196.721359 
	C89.868866,199.492538 88.933105,202.285538 87.875122,205.031479 
	C78.180527,230.193298 75.502296,255.776642 84.306076,281.691620 
	C93.845947,309.773376 113.117645,327.771088 141.956985,335.222839 
	C147.285477,336.599670 151.163986,334.455963 152.161484,329.989807 
	C153.084686,325.856293 150.337051,322.775024 145.573273,320.949524 
	C138.027695,318.057953 129.878601,315.715637 123.458214,311.094147 
	C98.056549,292.809509 91.026604,266.649414 94.553764,236.990814 
	C97.280731,214.060822 107.550354,194.240250 121.912903,176.397095 
	C126.231392,171.032059 130.372253,165.524048 134.594498,160.081543 
	C109.743942,167.473221 86.472679,177.240265 66.779373,195.275833 
M298.164215,390.605194 
	C310.387146,380.361359 323.338470,370.856506 334.659515,359.697723 
	C350.987244,343.604156 363.244476,324.534637 368.132385,301.728943 
	C369.741699,294.220276 369.726074,286.263550 369.604370,278.525085 
	C369.542023,274.561401 366.053986,272.561798 362.029144,273.066010 
	C358.072357,273.561646 355.730255,275.916321 355.857086,280.152557 
	C356.508301,301.911499 348.001831,320.463959 334.959747,337.031860 
	C303.650299,376.805573 261.880737,399.665192 213.087616,410.385559 
	C201.605347,412.908295 189.719223,413.621765 178.003174,415.037476 
	C173.180023,415.620331 170.396851,418.221466 170.459457,422.597107 
	C170.521133,426.907104 173.420837,429.472656 178.412842,429.606873 
	C179.577972,429.638245 180.750244,429.668945 181.910370,429.581757 
	C223.702408,426.441925 262.350281,413.871063 298.164215,390.605194 
M42.686909,264.910736 
	C42.221752,260.340118 39.754620,258.026794 35.099808,258.218109 
	C30.891947,258.391022 28.886164,260.925201 28.208715,264.787598 
	C20.346022,309.615997 39.945858,353.584595 78.589218,377.588593 
	C101.271652,391.678131 126.231888,399.015961 152.695938,400.153076 
	C166.720474,400.755737 180.869278,399.025879 194.928772,397.925018 
	C199.331940,397.580200 201.627670,393.628693 200.846878,389.681274 
	C200.077789,385.793030 196.556351,383.393402 192.293396,383.884399 
	C191.302277,383.998566 190.326447,384.239838 189.337524,384.379608 
	C157.951294,388.815094 127.550072,385.519958 98.721985,371.919861 
	C70.043541,358.390289 50.737045,336.746399 43.271038,305.406891 
	C40.134903,292.242523 40.459614,278.999908 42.686909,264.910736 
M267.353668,333.836151 
	C279.005280,322.927338 290.690491,312.053864 302.260071,301.058746 
	C303.508331,299.872467 304.545807,298.071533 304.877563,296.396545 
	C305.540588,293.048920 304.573486,290.198669 301.121674,288.557343 
	C296.778137,286.491913 293.826385,288.566406 291.065948,291.575409 
	C271.708618,312.675629 249.606430,330.086304 223.052017,341.270447 
	C200.889145,350.604980 177.974258,356.636810 153.626999,354.455353 
	C146.525818,353.819122 139.524109,352.135376 132.446548,351.148987 
	C128.383759,350.582733 125.121559,351.947235 124.108910,356.369965 
	C123.121880,360.680847 125.316185,364.355011 129.917862,365.327332 
	C136.747406,366.770447 143.638123,368.429810 150.567902,368.810028 
	C193.375504,371.158600 232.168747,359.655823 267.353668,333.836151 
M64.182083,280.993866 
	C57.346725,281.226379 54.684162,284.373413 55.958897,290.786133 
	C61.324062,317.776428 76.647392,337.796753 99.386284,352.551392 
	C104.446953,355.835114 108.851723,355.289368 111.224144,351.509552 
	C113.673119,347.607758 112.315460,343.573517 107.348793,340.324188 
	C87.868904,327.579865 74.780136,310.402954 69.859146,287.294037 
	C69.367249,284.984100 66.653419,283.147369 64.182083,280.993866 
z"/>
<path fill="#E7262E" opacity="1.000000" stroke="none" 
	d="
M472.689819,111.717331 
	C455.137024,143.534729 426.966095,156.229126 392.551575,156.436249 
	C362.943359,156.614441 333.328339,154.949249 303.712433,154.778809 
	C276.976105,154.624924 251.017380,159.279175 226.642288,170.790924 
	C203.751999,181.601471 183.343918,195.713364 168.679474,216.844711 
	C162.545212,225.684143 157.724792,235.216278 159.185791,246.554672 
	C160.549881,257.140778 170.527756,263.433624 180.138367,258.688049 
	C187.775772,254.916840 194.863022,249.653320 201.407501,244.121292 
	C217.814377,230.252579 233.850327,215.923584 253.114166,206.000580 
	C260.053375,202.426117 267.347778,199.543137 274.462219,196.305374 
	C275.962067,195.622803 277.894867,195.117432 278.719299,193.909897 
	C279.897888,192.183731 281.100708,189.670074 280.657776,187.902557 
	C280.320831,186.558075 277.195709,184.731720 275.729523,185.049622 
	C268.292267,186.662140 260.736115,188.258148 253.688980,191.042740 
	C228.453903,201.014084 207.271255,216.859375 189.239578,237.027893 
	C185.295731,241.439117 180.918777,242.392090 177.544952,239.599365 
	C173.968689,236.639053 174.155167,232.034592 178.288208,227.375473 
	C201.211624,201.534409 228.676987,182.586288 262.047211,172.838776 
	C266.777588,171.457047 271.850098,170.736893 276.778809,170.661270 
	C284.542480,170.542175 290.587189,174.090698 293.956360,181.332687 
	C297.386749,188.706207 296.424683,195.891098 291.185303,201.850830 
	C288.216339,205.227951 284.260803,208.424988 280.105743,209.958908 
	C255.921249,218.887100 235.708221,233.772308 216.452286,250.434235 
	C207.937912,257.801636 199.041656,265.062378 189.322540,270.633606 
	C168.637161,282.490967 143.214798,267.517303 144.488968,242.702637 
	C145.359192,225.754730 152.924942,212.010437 163.427200,199.682770 
	C185.343765,173.956894 213.488068,157.825714 245.557892,148.170425 
	C272.404663,140.087646 300.006866,139.573700 327.720673,140.253128 
	C351.328644,140.831909 374.959717,142.122772 398.542938,141.550156 
	C418.409454,141.067780 436.372833,134.222992 450.025879,118.724823 
	C451.232910,117.354698 452.304443,115.860268 453.369293,114.373718 
	C453.601257,114.049881 453.534302,113.511917 453.705414,112.448517 
	C448.112244,114.614891 442.954773,116.710121 437.729431,118.619537 
	C414.815704,126.992592 390.994904,126.703949 367.139374,125.791977 
	C362.811005,125.626503 360.579102,122.927864 360.637634,118.515999 
	C360.696716,114.061913 363.157104,111.665985 367.402832,111.436943 
	C371.384003,111.222176 375.397308,111.449242 379.389954,111.627853 
	C401.980438,112.638458 423.873291,109.737595 444.562347,100.074066 
	C458.320099,93.648033 469.683990,83.875145 480.935516,73.949158 
	C483.531372,71.659119 486.188873,69.438965 489.382416,67.536461 
	C484.721069,82.559372 480.299316,97.534828 472.689819,111.717331 
z"/>
<path fill="#E7262E" opacity="1.000000" stroke="none" 
	d="
M407.894745,199.913544 
	C406.263000,200.443787 404.454315,200.682098 403.025970,201.547928 
	C380.226776,215.368576 355.359894,223.557236 329.275879,228.057205 
	C297.882874,233.473099 269.861633,245.402603 246.019272,267.111145 
	C230.005783,281.691467 212.637924,294.541534 192.110046,302.575745 
	C159.425064,315.367920 121.063507,297.351074 113.460068,262.353424 
	C109.294243,243.178696 112.413437,224.966171 120.402710,207.410645 
	C133.690948,178.211227 156.395538,157.923172 183.333694,141.822144 
	C218.975143,120.519112 257.608063,109.661064 299.147583,109.416878 
	C312.285645,109.339638 325.426880,109.619049 338.565125,109.831390 
	C344.094940,109.920746 346.796173,112.445679 346.717407,117.081932 
	C346.636932,121.817703 343.525177,124.152245 337.832703,124.179932 
	C319.195465,124.270546 300.482483,123.453972 281.937317,124.840775 
	C240.174332,127.963814 202.781265,143.245117 169.789719,168.920425 
	C149.764465,184.504852 134.634048,203.800629 128.259766,228.936157 
	C124.579483,243.448471 125.084526,257.714050 132.327560,271.159058 
	C141.442856,288.079468 164.610992,296.290619 184.012024,289.906311 
	C199.318893,284.869263 212.163101,275.716309 224.650284,265.975983 
	C235.402634,257.588867 245.713501,248.617798 256.671967,240.516922 
	C275.394165,226.676895 296.989105,219.556625 319.609802,215.337753 
	C348.764648,209.900253 377.083099,202.067200 401.831818,185.010574 
	C415.377716,175.674850 428.180847,165.261566 441.324585,155.341705 
	C442.749603,154.266251 444.212250,153.240677 446.572968,152.788239 
	C443.702271,160.100327 440.840149,167.415817 437.959351,174.723907 
	C426.339996,204.200150 408.894989,229.335907 382.506195,247.442505 
	C374.875336,252.678391 366.419342,256.771820 358.123505,260.956573 
	C352.903076,263.589996 348.276306,261.923859 346.698425,257.671204 
	C345.155334,253.512344 347.248413,249.784470 352.363953,247.593765 
	C375.671967,237.612274 394.029755,221.749985 408.298828,200.311127 
	C408.501282,199.656708 408.450348,199.419601 408.399353,199.182510 
	C408.231140,199.426193 408.062958,199.669861 407.894745,199.913544 
z"/>
<path fill="#E7272F" opacity="1.000000" stroke="none" 
	d="
M216.008072,325.952332 
	C203.172791,332.268646 190.054352,336.286743 176.166153,337.744843 
	C169.436890,338.451355 165.515274,335.700653 165.839142,330.251495 
	C166.105515,325.769836 169.052231,323.719940 173.057175,323.390350 
	C198.163635,321.324280 218.832642,309.285828 238.335938,294.584961 
	C251.881607,284.374756 265.097107,273.691254 279.031036,264.043854 
	C288.157196,257.725250 298.465149,254.044418 310.151184,256.673370 
	C326.279694,260.301697 337.621490,275.240875 336.458405,291.892212 
	C335.439148,306.484985 328.648163,318.575043 319.658051,329.536926 
	C298.528320,355.300934 270.952698,372.003967 240.759354,384.889648 
	C235.419205,387.168701 229.950531,389.170715 224.460968,391.068573 
	C219.456345,392.798767 215.383896,391.105835 214.072113,387.089264 
	C212.634659,382.687836 214.890167,378.884155 219.965240,377.150513 
	C248.793686,367.302795 275.106049,353.046814 297.425781,332.096008 
	C307.055878,323.056580 315.400116,312.912415 320.049133,300.227173 
	C323.844360,289.871613 322.175659,281.086823 315.094727,275.110138 
	C308.816681,269.811127 301.365173,268.620300 294.616882,272.668304 
	C283.117920,279.566071 271.987152,287.194336 261.307648,295.312836 
	C246.852478,306.301575 232.695694,317.641876 216.008072,325.952332 
z"/>
<path fill="#E7272E" opacity="1.000000" stroke="none" 
	d="
M67.039536,195.036835 
	C86.472679,177.240265 109.743942,167.473221 134.594498,160.081543 
	C130.372253,165.524048 126.231392,171.032059 121.912903,176.397095 
	C107.550354,194.240250 97.280731,214.060822 94.553764,236.990814 
	C91.026604,266.649414 98.056549,292.809509 123.458214,311.094147 
	C129.878601,315.715637 138.027695,318.057953 145.573273,320.949524 
	C150.337051,322.775024 153.084686,325.856293 152.161484,329.989807 
	C151.163986,334.455963 147.285477,336.599670 141.956985,335.222839 
	C113.117645,327.771088 93.845947,309.773376 84.306076,281.691620 
	C75.502296,255.776642 78.180527,230.193298 87.875122,205.031479 
	C88.933105,202.285538 89.868866,199.492538 90.861313,196.721359 
	C90.400177,196.373398 89.939034,196.025421 89.477898,195.677460 
	C84.747643,199.604874 79.818436,203.318787 75.327728,207.503250 
	C65.369308,216.782608 57.545967,227.706665 51.442059,239.866623 
	C48.692402,245.344376 45.045338,247.184692 40.893345,245.202499 
	C36.838615,243.266739 35.702305,238.897949 38.321041,233.499298 
	C45.371063,218.965347 55.028419,206.330978 67.039536,195.036835 
z"/>
<path fill="#E7272F" opacity="1.000000" stroke="none" 
	d="
M297.860718,390.798859 
	C262.350281,413.871063 223.702408,426.441925 181.910370,429.581757 
	C180.750244,429.668945 179.577972,429.638245 178.412842,429.606873 
	C173.420837,429.472656 170.521133,426.907104 170.459457,422.597107 
	C170.396851,418.221466 173.180023,415.620331 178.003174,415.037476 
	C189.719223,413.621765 201.605347,412.908295 213.087616,410.385559 
	C261.880737,399.665192 303.650299,376.805573 334.959747,337.031860 
	C348.001831,320.463959 356.508301,301.911499 355.857086,280.152557 
	C355.730255,275.916321 358.072357,273.561646 362.029144,273.066010 
	C366.053986,272.561798 369.542023,274.561401 369.604370,278.525085 
	C369.726074,286.263550 369.741699,294.220276 368.132385,301.728943 
	C363.244476,324.534637 350.987244,343.604156 334.659515,359.697723 
	C323.338470,370.856506 310.387146,380.361359 297.860718,390.798859 
z"/>
<path fill="#E7272F" opacity="1.000000" stroke="none" 
	d="
M42.680325,265.326202 
	C40.459614,278.999908 40.134903,292.242523 43.271038,305.406891 
	C50.737045,336.746399 70.043541,358.390289 98.721985,371.919861 
	C127.550072,385.519958 157.951294,388.815094 189.337524,384.379608 
	C190.326447,384.239838 191.302277,383.998566 192.293396,383.884399 
	C196.556351,383.393402 200.077789,385.793030 200.846878,389.681274 
	C201.627670,393.628693 199.331940,397.580200 194.928772,397.925018 
	C180.869278,399.025879 166.720474,400.755737 152.695938,400.153076 
	C126.231888,399.015961 101.271652,391.678131 78.589218,377.588593 
	C39.945858,353.584595 20.346022,309.615997 28.208715,264.787598 
	C28.886164,260.925201 30.891947,258.391022 35.099808,258.218109 
	C39.754620,258.026794 42.221752,260.340118 42.680325,265.326202 
z"/>
<path fill="#E7262E" opacity="1.000000" stroke="none" 
	d="
M267.065308,334.045258 
	C232.168747,359.655823 193.375504,371.158600 150.567902,368.810028 
	C143.638123,368.429810 136.747406,366.770447 129.917862,365.327332 
	C125.316185,364.355011 123.121880,360.680847 124.108910,356.369965 
	C125.121559,351.947235 128.383759,350.582733 132.446548,351.148987 
	C139.524109,352.135376 146.525818,353.819122 153.626999,354.455353 
	C177.974258,356.636810 200.889145,350.604980 223.052017,341.270447 
	C249.606430,330.086304 271.708618,312.675629 291.065948,291.575409 
	C293.826385,288.566406 296.778137,286.491913 301.121674,288.557343 
	C304.573486,290.198669 305.540588,293.048920 304.877563,296.396545 
	C304.545807,298.071533 303.508331,299.872467 302.260071,301.058746 
	C290.690491,312.053864 279.005280,322.927338 267.065308,334.045258 
z"/>
<path fill="#E7272F" opacity="1.000000" stroke="none" 
	d="
M64.576439,281.042419 
	C66.653419,283.147369 69.367249,284.984100 69.859146,287.294037 
	C74.780136,310.402954 87.868904,327.579865 107.348793,340.324188 
	C112.315460,343.573517 113.673119,347.607758 111.224144,351.509552 
	C108.851723,355.289368 104.446953,355.835114 99.386284,352.551392 
	C76.647392,337.796753 61.324062,317.776428 55.958897,290.786133 
	C54.684162,284.373413 57.346725,281.226379 64.576439,281.042419 
z"/>
<path fill="#FFFDFD" opacity="1.000000" stroke="none" 
	d="
M407.929504,199.941345 
	C408.062958,199.669861 408.231140,199.426193 408.399353,199.182510 
	C408.450348,199.419601 408.501282,199.656708 408.291718,199.960815 
	C408.031189,200.027817 407.964233,199.969131 407.929504,199.941345 
z"/>
</svg>